<svg id="visual" viewBox="0 0 960 540" width="960" height="540" xmlns="http://www.w3.org/2000/svg" xmlns:xlink="http://www.w3.org/1999/xlink" version="1.1"><rect x="0" y="0" width="960" height="540" fill="#ffffff"></rect><defs><linearGradient id="grad1_0" x1="43.8%" y1="0%" x2="100%" y2="100%"><stop offset="14.444444444444446%" stop-color="#9e3cfa" stop-opacity="1"></stop><stop offset="85.55555555555554%" stop-color="#9e3cfa" stop-opacity="1"></stop></linearGradient></defs><defs><linearGradient id="grad1_1" x1="43.8%" y1="0%" x2="100%" y2="100%"><stop offset="14.444444444444446%" stop-color="#9e3cfa" stop-opacity="1"></stop><stop offset="85.55555555555554%" stop-color="#c682fd" stop-opacity="1"></stop></linearGradient></defs><defs><linearGradient id="grad1_2" x1="43.8%" y1="0%" x2="100%" y2="100%"><stop offset="14.444444444444446%" stop-color="#e5c1ff" stop-opacity="1"></stop><stop offset="85.55555555555554%" stop-color="#c682fd" stop-opacity="1"></stop></linearGradient></defs><defs><linearGradient id="grad1_3" x1="43.8%" y1="0%" x2="100%" y2="100%"><stop offset="14.444444444444446%" stop-color="#e5c1ff" stop-opacity="1"></stop><stop offset="85.55555555555554%" stop-color="#ffffff" stop-opacity="1"></stop></linearGradient></defs><defs><linearGradient id="grad2_0" x1="0%" y1="0%" x2="56.3%" y2="100%"><stop offset="14.444444444444446%" stop-color="#9e3cfa" stop-opacity="1"></stop><stop offset="85.55555555555554%" stop-color="#9e3cfa" stop-opacity="1"></stop></linearGradient></defs><defs><linearGradient id="grad2_1" x1="0%" y1="0%" x2="56.3%" y2="100%"><stop offset="14.444444444444446%" stop-color="#c682fd" stop-opacity="1"></stop><stop offset="85.55555555555554%" stop-color="#9e3cfa" stop-opacity="1"></stop></linearGradient></defs><defs><linearGradient id="grad2_2" x1="0%" y1="0%" x2="56.3%" y2="100%"><stop offset="14.444444444444446%" stop-color="#c682fd" stop-opacity="1"></stop><stop offset="85.55555555555554%" stop-color="#e5c1ff" stop-opacity="1"></stop></linearGradient></defs><defs><linearGradient id="grad2_3" x1="0%" y1="0%" x2="56.3%" y2="100%"><stop offset="14.444444444444446%" stop-color="#ffffff" stop-opacity="1"></stop><stop offset="85.55555555555554%" stop-color="#e5c1ff" stop-opacity="1"></stop></linearGradient></defs><g transform="translate(960, 0)"><path d="M0 270C-22.4 247.9 -44.8 225.8 -71.1 218.7C-97.3 211.7 -127.4 219.7 -154.6 212.8C-181.8 205.9 -206.1 184.1 -218.4 158.7C-230.8 133.3 -231.2 104.3 -237.8 77.3C-244.4 50.2 -257.2 25.1 -270 0L0 0Z" fill="#f3e0ff"></path><path d="M0 202.5C-16.8 185.9 -33.6 169.4 -53.3 164.1C-73 158.8 -95.5 164.8 -115.9 159.6C-136.3 154.4 -154.6 138.1 -163.8 119C-173.1 100 -173.4 78.2 -178.3 57.9C-183.3 37.7 -192.9 18.8 -202.5 0L0 0Z" fill="#d6a2ff"></path><path d="M0 135C-11.2 124 -22.4 112.9 -35.5 109.4C-48.7 105.8 -63.7 109.8 -77.3 106.4C-90.9 102.9 -103 92 -109.2 79.4C-115.4 66.7 -115.6 52.2 -118.9 38.6C-122.2 25.1 -128.6 12.6 -135 0L0 0Z" fill="#b361fc"></path><path d="M0 67.5C-5.6 62 -11.2 56.5 -17.8 54.7C-24.3 52.9 -31.8 54.9 -38.6 53.2C-45.4 51.5 -51.5 46 -54.6 39.7C-57.7 33.3 -57.8 26.1 -59.4 19.3C-61.1 12.6 -64.3 6.3 -67.5 0L0 0Z" fill="#9e3cfa"></path></g><g transform="translate(0, 540)"><path d="M0 -270C25.1 -259.3 50.2 -248.5 78.8 -242.5C107.4 -236.5 139.3 -235.2 158.7 -218.4C178.1 -201.7 184.8 -169.5 199.8 -145.2C214.8 -120.9 238 -104.5 251.1 -81.6C264.1 -58.7 267.1 -29.3 270 0L0 0Z" fill="#f3e0ff"></path><path d="M0 -202.5C18.8 -194.5 37.7 -186.4 59.1 -181.9C80.5 -177.4 104.5 -176.4 119 -163.8C133.6 -151.3 138.6 -127.1 149.9 -108.9C161.1 -90.7 178.5 -78.3 188.3 -61.2C198.1 -44 200.3 -22 202.5 0L0 0Z" fill="#d6a2ff"></path><path d="M0 -135C12.6 -129.6 25.1 -124.3 39.4 -121.3C53.7 -118.2 69.7 -117.6 79.4 -109.2C89 -100.8 92.4 -84.7 99.9 -72.6C107.4 -60.4 119 -52.2 125.5 -40.8C132.1 -29.3 133.5 -14.7 135 0L0 0Z" fill="#b361fc"></path><path d="M0 -67.5C6.3 -64.8 12.6 -62.1 19.7 -60.6C26.8 -59.1 34.8 -58.8 39.7 -54.6C44.5 -50.4 46.2 -42.4 50 -36.3C53.7 -30.2 59.5 -26.1 62.8 -20.4C66 -14.7 66.8 -7.3 67.5 0L0 0Z" fill="#9e3cfa"></path></g></svg>