<svg id="visual" viewBox="0 0 960 540" width="960" height="540" xmlns="http://www.w3.org/2000/svg" xmlns:xlink="http://www.w3.org/1999/xlink" version="1.1"><rect width="960" height="540" fill="#FFFFFF"></rect><g><g transform="translate(567 356)"><path d="M85.9 55.6C52.8 107 -73.1 110.9 -102.8 61.4C-132.6 12 -66.3 -90.9 -3.4 -92.9C59.5 -94.8 119 4.1 85.9 55.6Z" fill="#c8c0ff"></path></g><g transform="translate(71 24)"><path d="M85.7 45.4C64.7 85.8 -30.6 79.2 -57.2 35.5C-83.9 -8.2 -42 -89 5.7 -85.7C53.3 -82.4 106.7 5 85.7 45.4Z" fill="#c8c0ff"></path></g><g transform="translate(940 43)"><path d="M67.7 43.5C39.1 88.5 -66.2 93.8 -90.2 51.4C-114.3 9 -57.1 -81 -4.5 -83.7C48.1 -86.3 96.2 -1.5 67.7 43.5Z" fill="#c8c0ff"></path></g></g></svg>