<svg id="visual" viewBox="0 0 960 540" width="960" height="540" xmlns="http://www.w3.org/2000/svg" xmlns:xlink="http://www.w3.org/1999/xlink" version="1.1"><rect width="960" height="540" fill="#FFFFFF"></rect><g><g transform="translate(801 434)"><path d="M131.9 9.6C131.9 73.1 66 146.3 -4.4 146.3C-74.8 146.3 -149.7 73.1 -149.7 9.6C-149.7 -54 -74.8 -108 -4.4 -108C66 -108 131.9 -54 131.9 9.6Z" stroke="#c8c0ff" fill="none" stroke-width="20"></path></g><g transform="translate(296 286)"><path d="M94.9 -0.5C94.9 32.6 47.4 65.1 -0.2 65.1C-47.9 65.1 -95.8 32.6 -95.8 -0.5C-95.8 -33.5 -47.9 -66.9 -0.2 -66.9C47.4 -66.9 94.9 -33.5 94.9 -0.5Z" stroke="#c8c0ff" fill="none" stroke-width="20"></path></g></g></svg>